# This file uses centimeters as units for non-parametric coordinates.

mtllib stair.mtl
g default
v 0.500000 0.000000 0.500000
v 0.500000 0.000000 -0.500000
v 0.500000 1.000000 -0.500000
v -0.500000 1.000000 -0.500000
v -0.500000 0.000000 0.500000
v -0.500000 0.000000 -0.500000
v -0.500000 0.000000 0.000000
v 0.500000 0.000000 0.000000
v -0.500000 0.500000 0.000000
v -0.500000 0.500000 -0.500000
v 0.500000 0.500000 -0.500000
v 0.500000 0.500000 0.000000
v 0.500000 1.000000 -0.250000
v -0.500000 1.000000 -0.250000
v -0.500000 0.500000 -0.250000
v -0.500000 0.000000 -0.250000
v 0.500000 0.000000 -0.250000
v 0.500000 0.500000 -0.250000
v 0.500000 0.500000 0.250000
v 0.500000 0.000000 0.250000
v -0.500000 0.000000 0.250000
v -0.500000 0.500000 0.250000
v 0.500000 0.750000 0.000000
v -0.500000 0.750000 0.000000
v -0.500000 0.750000 -0.250000
v -0.500000 0.750000 -0.500000
v 0.500000 0.750000 -0.500000
v 0.500000 0.750000 -0.250000
v 0.500000 0.250000 0.500000
v -0.500000 0.250000 0.500000
v -0.500000 0.250000 0.250000
v -0.500000 0.250000 0.000000
v -0.500000 0.250000 -0.250000
v -0.500000 0.250000 -0.500000
v 0.500000 0.250000 -0.500000
v 0.500000 0.250000 -0.250000
v 0.500000 0.250000 0.000000
v 0.500000 0.250000 0.250000
vt 0.437500 0.062500
vt 0.437500 0.000000
vt 0.500000 0.062500
vt 0.437500 0.687500
vt 0.500000 0.687500
vt 0.437500 0.750000
vt 0.500000 0.750000
vt 0.625000 0.000000
vt 0.875000 0.000000
vt 0.625000 0.062500
vt 0.875000 0.062500
vt 0.125000 0.062500
vt 0.125000 0.000000
vt 0.375000 0.062500
vt 0.562500 0.750000
vt 0.562500 0.687500
vt 0.500000 0.000000
vt 0.562500 0.062500
vt 0.562500 0.000000
vt 0.562500 0.625000
vt 0.500000 0.625000
vt 0.562500 0.562500
vt 0.500000 0.562500
vt 0.625000 0.125000
vt 0.875000 0.125000
vt 0.625000 0.187500
vt 0.875000 0.187500
vt 0.500000 0.125000
vt 0.562500 0.187500
vt 0.500000 0.187500
vt 0.250000 0.000000
vt 0.500000 0.000000
vt 0.250000 1.000000
vt 0.000000 1.000000
vt 0.250000 1.000000
vt 0.000000 0.000000
vt 0.250000 0.000000
vt 0.562500 0.250000
vt 0.625000 0.250000
vt 0.562500 0.500000
vt 0.625000 0.500000
vt 0.625000 0.625000
vt 0.625000 0.562500
vt 0.625000 0.750000
vt 0.625000 0.687500
vt 0.562500 0.125000
vt 0.375000 0.000000
vt 0.375000 0.687500
vt 0.375000 0.750000
vt 0.875000 0.250000
vt 0.437500 0.625000
vt 0.437500 0.125000
vt 0.000000 1.000000
vt 0.250000 1.000000
vt 0.000000 0.000000
vt 0.250000 0.000000
vt 1.000000 0.250000
vt 0.000000 0.000000
vt 1.000000 0.000000
vt 0.000000 1.000000
vt 0.250000 1.000000
vt 0.000000 0.000000
vt 0.250000 0.000000
vt 0.000000 0.000000
vt 0.250000 0.000000
vt 0.000000 1.000000
vt 0.250000 1.000000
vt 0.500000 1.000000
vt 0.000000 0.250000
vn 1.000000 0.000000 0.000000
vn 1.000000 0.000000 0.000000
vn 1.000000 0.000000 0.000000
vn -1.000000 0.000000 -0.000000
vn -1.000000 0.000000 -0.000000
vn -1.000000 0.000000 -0.000000
vn -1.000000 0.000000 -0.000000
vn -1.000000 0.000000 -0.000000
vn -1.000000 0.000000 -0.000000
vn 0.000000 0.000000 -1.000000
vn 0.000000 0.000000 -1.000000
vn 0.000000 0.000000 -1.000000
vn 0.000000 0.000000 -1.000000
vn 0.000000 0.000000 -1.000000
vn 0.000000 0.000000 -1.000000
vn -0.000000 0.000000 1.000000
vn -0.000000 0.000000 1.000000
vn -0.000000 0.000000 1.000000
vn -1.000000 0.000000 -0.000000
vn -1.000000 0.000000 -0.000000
vn -1.000000 0.000000 -0.000000
vn 1.000000 0.000000 0.000000
vn 1.000000 0.000000 0.000000
vn 1.000000 0.000000 0.000000
vn 1.000000 0.000000 0.000000
vn 1.000000 0.000000 0.000000
vn 1.000000 0.000000 0.000000
vn -1.000000 0.000000 -0.000000
vn -1.000000 0.000000 -0.000000
vn -1.000000 0.000000 -0.000000
vn -1.000000 0.000000 -0.000000
vn -1.000000 0.000000 -0.000000
vn -1.000000 0.000000 -0.000000
vn 0.000000 0.000000 -1.000000
vn 0.000000 0.000000 -1.000000
vn 0.000000 0.000000 -1.000000
vn 0.000000 0.000000 -1.000000
vn 0.000000 0.000000 -1.000000
vn 0.000000 0.000000 -1.000000
vn 1.000000 0.000000 0.000000
vn 1.000000 0.000000 0.000000
vn 1.000000 0.000000 0.000000
vn -0.000000 0.000000 1.000000
vn -0.000000 0.000000 1.000000
vn -0.000000 0.000000 1.000000
vn 0.000000 1.000000 0.000000
vn 0.000000 1.000000 0.000000
vn 0.000000 1.000000 0.000000
vn 0.000000 1.000000 0.000000
vn 0.000000 1.000000 0.000000
vn 0.000000 1.000000 0.000000
vn 0.000000 1.000000 0.000000
vn 0.000000 1.000000 0.000000
vn 0.000000 1.000000 0.000000
vn 0.000000 1.000000 0.000000
vn 0.000000 1.000000 0.000000
vn 0.000000 1.000000 0.000000
vn -1.000000 0.000000 -0.000000
vn -1.000000 0.000000 -0.000000
vn -1.000000 0.000000 -0.000000
vn -1.000000 0.000000 -0.000000
vn -1.000000 0.000000 -0.000000
vn -1.000000 0.000000 -0.000000
vn -1.000000 0.000000 -0.000000
vn -1.000000 0.000000 -0.000000
vn -1.000000 0.000000 -0.000000
vn 1.000000 0.000000 0.000000
vn 1.000000 0.000000 0.000000
vn 1.000000 0.000000 0.000000
vn 1.000000 0.000000 0.000000
vn 1.000000 0.000000 0.000000
vn 1.000000 0.000000 0.000000
vn 1.000000 0.000000 0.000000
vn 1.000000 0.000000 0.000000
vn 1.000000 0.000000 0.000000
vn 1.000000 0.000000 0.000000
vn 1.000000 0.000000 0.000000
vn 1.000000 0.000000 0.000000
vn 1.000000 0.000000 0.000000
vn 1.000000 0.000000 0.000000
vn 1.000000 0.000000 0.000000
vn -1.000000 0.000000 -0.000000
vn -1.000000 0.000000 -0.000000
vn -1.000000 0.000000 -0.000000
vn -1.000000 0.000000 -0.000000
vn -1.000000 0.000000 -0.000000
vn -1.000000 0.000000 -0.000000
vn -1.000000 0.000000 -0.000000
vn -1.000000 0.000000 -0.000000
vn -1.000000 0.000000 -0.000000
vn -1.000000 0.000000 -0.000000
vn -1.000000 0.000000 -0.000000
vn -1.000000 0.000000 -0.000000
vn 0.000000 0.000000 -1.000000
vn 0.000000 0.000000 -1.000000
vn 0.000000 0.000000 -1.000000
vn 0.000000 0.000000 -1.000000
vn 0.000000 0.000000 -1.000000
vn 0.000000 0.000000 -1.000000
vn 1.000000 0.000000 0.000000
vn 1.000000 0.000000 0.000000
vn 1.000000 0.000000 0.000000
vn -1.000000 0.000000 -0.000000
vn -1.000000 0.000000 -0.000000
vn -1.000000 0.000000 -0.000000
vn -1.000000 0.000000 -0.000000
vn -1.000000 0.000000 -0.000000
vn -1.000000 0.000000 -0.000000
vn -1.000000 0.000000 -0.000000
vn -1.000000 0.000000 -0.000000
vn -1.000000 0.000000 -0.000000
vn -1.000000 0.000000 -0.000000
vn -1.000000 0.000000 -0.000000
vn -1.000000 0.000000 -0.000000
vn -1.000000 0.000000 -0.000000
vn -1.000000 0.000000 -0.000000
vn -1.000000 0.000000 -0.000000
vn -1.000000 0.000000 -0.000000
vn -1.000000 0.000000 -0.000000
vn -1.000000 0.000000 -0.000000
vn 0.000000 0.000000 -1.000000
vn 0.000000 0.000000 -1.000000
vn 0.000000 0.000000 -1.000000
vn 0.000000 0.000000 -1.000000
vn 0.000000 0.000000 -1.000000
vn 0.000000 0.000000 -1.000000
vn 1.000000 0.000000 0.000000
vn 1.000000 0.000000 0.000000
vn 1.000000 0.000000 0.000000
vn 1.000000 0.000000 0.000000
vn 1.000000 0.000000 0.000000
vn 1.000000 0.000000 0.000000
vn 1.000000 0.000000 0.000000
vn 1.000000 0.000000 0.000000
vn 1.000000 0.000000 0.000000
vn 1.000000 0.000000 0.000000
vn 1.000000 0.000000 0.000000
vn 1.000000 0.000000 0.000000
vn 1.000000 0.000000 0.000000
vn 1.000000 0.000000 0.000000
vn 1.000000 0.000000 0.000000
vn 0.000000 1.000000 0.000000
vn 0.000000 1.000000 0.000000
vn 0.000000 1.000000 0.000000
vn 0.000000 1.000000 0.000000
vn 0.000000 1.000000 0.000000
vn 0.000000 1.000000 0.000000
vn -0.000000 0.000000 1.000000
vn -0.000000 0.000000 1.000000
vn -0.000000 0.000000 1.000000
vn 0.000000 1.000000 0.000000
vn 0.000000 1.000000 0.000000
vn 0.000000 1.000000 0.000000
vn 0.000000 1.000000 0.000000
vn 0.000000 1.000000 0.000000
vn 0.000000 1.000000 0.000000
vn -0.000000 0.000000 1.000000
vn -0.000000 0.000000 1.000000
vn -0.000000 0.000000 1.000000
vn -0.000000 0.000000 1.000000
vn -0.000000 0.000000 1.000000
vn -0.000000 0.000000 1.000000
vn -1.000000 0.000000 -0.000000
vn -1.000000 0.000000 -0.000000
vn -1.000000 0.000000 -0.000000
vn -1.000000 0.000000 -0.000000
vn -1.000000 0.000000 -0.000000
vn -1.000000 0.000000 -0.000000
vn 1.000000 0.000000 0.000000
vn 1.000000 0.000000 0.000000
vn 1.000000 0.000000 0.000000
vn 1.000000 0.000000 0.000000
vn 1.000000 0.000000 0.000000
vn 1.000000 0.000000 0.000000
vn 1.000000 0.000000 0.000000
vn 1.000000 0.000000 0.000000
vn 1.000000 0.000000 0.000000
vn 1.000000 0.000000 0.000000
vn 1.000000 0.000000 0.000000
vn 1.000000 0.000000 0.000000
vn 1.000000 0.000000 0.000000
vn 1.000000 0.000000 0.000000
vn 1.000000 0.000000 0.000000
vn -0.000000 0.000000 1.000000
vn -0.000000 0.000000 1.000000
vn -0.000000 0.000000 1.000000
vn -0.000000 0.000000 1.000000
vn -0.000000 0.000000 1.000000
vn -0.000000 0.000000 1.000000
vn -0.000000 0.000000 1.000000
vn -0.000000 0.000000 1.000000
vn -0.000000 0.000000 1.000000
s off
g stair:stair1
usemtl stair:initialShadingGroup
f 38/1/1 20/2/2 37/3/3
f 31/4/4 32/5/5 21/6/6
f 21/6/7 32/5/8 7/7/9
f 2/8/10 6/9/11 35/10/12
f 35/10/13 6/9/14 34/11/15
f 30/12/16 5/13/17 29/14/18
f 16/15/19 7/7/20 33/16/21
f 37/3/22 8/17/23 36/18/24
f 36/18/25 8/17/26 17/19/27
f 15/20/28 9/21/29 25/22/30
f 25/22/31 9/21/32 24/23/33
f 11/24/34 10/25/35 27/26/36
f 27/26/37 10/25/38 26/27/39
f 12/28/40 28/29/41 23/30/42
f 24/31/43 9/32/44 23/33/45
f 9/34/46 22/35/47 12/36/48
f 12/36/49 22/35/50 19/37/51
f 13/38/52 3/39/53 14/40/54
f 14/40/55 3/39/56 4/41/57
f 10/42/58 15/20/59 26/43/60
f 26/43/61 15/20/62 25/22/63
f 6/44/64 16/15/65 34/45/66
f 36/18/67 17/19/68 35/10/69
f 35/10/70 17/19/71 2/8/72
f 28/29/73 18/46/74 27/26/75
f 27/26/76 18/46/77 11/24/78
f 29/14/79 1/47/80 38/1/81
f 30/48/82 31/4/83 5/49/84
f 5/49/85 31/4/86 21/6/87
f 26/43/88 25/22/89 4/41/90
f 4/41/91 25/22/92 14/40/93
f 27/26/94 26/27/95 3/39/96
f 3/39/97 26/27/98 4/50/99
f 3/39/100 28/29/101 27/26/102
f 22/51/103 9/21/104 31/4/105
f 31/4/106 9/21/107 32/5/108
f 33/16/109 32/5/110 15/20/111
f 15/20/112 32/5/113 9/21/114
f 34/45/115 33/16/116 10/42/117
f 10/42/118 33/16/119 15/20/120
f 35/10/121 34/11/122 11/24/123
f 11/24/124 34/11/125 10/25/126
f 18/46/127 36/18/128 11/24/129
f 11/24/130 36/18/131 35/10/132
f 12/28/133 37/3/134 18/46/135
f 18/46/136 37/3/137 36/18/138
f 19/52/139 38/1/140 12/28/141
f 25/53/142 24/54/143 28/55/144
f 28/55/145 24/54/146 23/56/147
f 13/57/148 25/58/149 28/59/150
f 31/60/151 30/61/152 38/62/153
f 38/62/154 30/61/155 29/63/156
f 22/64/157 31/65/158 19/66/159
f 19/66/160 31/65/161 38/67/162
f 34/45/163 16/15/164 33/16/165
f 33/16/166 7/7/167 32/5/168
f 37/3/169 20/2/170 8/17/171
f 3/39/172 13/38/173 28/29/174
f 38/1/175 1/47/176 20/2/177
f 12/28/178 38/1/179 37/3/180
f 18/46/181 28/29/182 12/28/183
f 23/33/184 9/32/185 12/68/186
f 14/69/187 25/58/188 13/57/189
f 29/14/190 5/13/191 1/47/192
